<svg aria-hidden="true" style="position: absolute; width: 0; height: 0; overflow: hidden;" version="1.1" xmlns="http://www.w3.org/2000/svg" xmlns:xlink="http://www.w3.org/1999/xlink">
  <defs>
    <symbol id="icon-plus" viewBox="0 0 256 256">
      <path d="M228,128a12,12,0,0,1-12,12H140v76a12,12,0,0,1-24,0V140H40a12,12,0,0,1,0-24h76V40a12,12,0,0,1,24,0v76h76A12,12,0,0,1,228,128Z"></path>
    </symbol>
    <symbol id="icon-list" viewBox="0 0 256 256">
      <path d="M228,128a12,12,0,0,1-12,12H40a12,12,0,0,1,0-24H216A12,12,0,0,1,228,128ZM40,76H216a12,12,0,0,0,0-24H40a12,12,0,0,0,0,24ZM216,180H40a12,12,0,0,0,0,24H216a12,12,0,0,0,0-24Z"></path>
    </symbol>
    <symbol id="icon-calendar" viewBox="0 0 256 256">
      <path d="M208,28H188V24a12,12,0,0,0-24,0v4H92V24a12,12,0,0,0-24,0v4H48A20,20,0,0,0,28,48V208a20,20,0,0,0,20,20H208a20,20,0,0,0,20-20V48A20,20,0,0,0,208,28ZM68,52a12,12,0,0,0,24,0h72a12,12,0,0,0,24,0h16V76H52V52ZM52,204V100H204V204Z"></path>
    </symbol>
    <symbol id="icon-caret-right" viewBox="0 0 256 256">
      <path d="M184.49,136.49l-80,80a12,12,0,0,1-17-17L159,128,87.51,56.49a12,12,0,1,1,17-17l80,80A12,12,0,0,1,184.49,136.49Z"></path>
    </symbol>
    <symbol id="icon-caret-left" viewBox="0 0 256 256">
      <path d="M168.49,199.51a12,12,0,0,1-17,17l-80-80a12,12,0,0,1,0-17l80-80a12,12,0,0,1,17,17L97,128Z"></path>
    </symbol>
    <symbol id="icon-trash" viewBox="0 0 256 256">
      <path d="M216,48H40a12,12,0,0,0,0,24h4V208a20,20,0,0,0,20,20H192a20,20,0,0,0,20-20V72h4a12,12,0,0,0,0-24ZM188,204H68V72H188ZM76,20A12,12,0,0,1,88,8h80a12,12,0,0,1,0,24H88A12,12,0,0,1,76,20Z"></path>
    </symbol>
    <symbol id="icon-pencil" viewBox="0 0 256 256">
      <path d="M230.14,70.54,185.46,25.85a20,20,0,0,0-28.29,0L33.86,149.17A19.85,19.85,0,0,0,28,163.31V208a20,20,0,0,0,20,20H92.69a19.86,19.86,0,0,0,14.14-5.86L230.14,98.82a20,20,0,0,0,0-28.28ZM91,204H52V165l84-84,39,39ZM192,103,153,64l18.34-18.34,39,39Z"></path>
    </symbol>
    <symbol id="icon-battery-full" viewBox="0 0 256 256">
      <path d="M200,56H32A24,24,0,0,0,8,80v96a24,24,0,0,0,24,24H200a24,24,0,0,0,24-24V80A24,24,0,0,0,200,56Zm8,120a8,8,0,0,1-8,8H32a8,8,0,0,1-8-8V80a8,8,0,0,1,8-8H200a8,8,0,0,1,8,8ZM192,96v64a8,8,0,0,1-8,8H48a8,8,0,0,1-8-8V96a8,8,0,0,1,8-8H184A8,8,0,0,1,192,96Zm64,0v64a8,8,0,0,1-16,0V96a8,8,0,0,1,16,0Z"></path>
    </symbol>
    <symbol id="icon-cell-signal" viewBox="0 0 256 256">
      <path d="M168,72V200a8,8,0,0,1-16,0V72a8,8,0,0,1,16,0Zm-48,32a8,8,0,0,0-8,8v88a8,8,0,0,0,16,0V112A8,8,0,0,0,120,104ZM80,144a8,8,0,0,0-8,8v48a8,8,0,0,0,16,0V152A8,8,0,0,0,80,144ZM40,184a8,8,0,0,0-8,8v8a8,8,0,0,0,16,0v-8A8,8,0,0,0,40,184Z"></path>
    </symbol>
    <symbol id="icon-wifi" viewBox="0 0 256 256">
      <path d="M140,204a12,12,0,1,1-12-12A12,12,0,0,1,140,204Zm65-81.23a124,124,0,0,0-153.94,0A8,8,0,0,0,61,135.31a108,108,0,0,1,134.06,0,8,8,0,0,0,11.24-1.3A8,8,0,0,0,205,122.77Zm-32.26,35.76a76.05,76.05,0,0,0-89.42,0,8,8,0,0,0,9.42,12.94,60,60,0,0,1,70.58,0,8,8,0,1,0,9.42-12.94Z"></path>
    </symbol>
    <symbol id="icon-check" viewBox="0 0 256 256">
      <path d="M232.49,80.49l-128,128a12,12,0,0,1-17,0l-56-56a12,12,0,1,1,17-17L96,183,215.51,63.51a12,12,0,0,1,17,17Z"></path>
    </symbol>
    <symbol id="icon-x" viewBox="0 0 256 256">
      <path d="M208.49,191.51a12,12,0,0,1-17,17L128,145,64.49,208.49a12,12,0,0,1-17-17L111,128,47.51,64.49a12,12,0,0,1,17-17L128,111l63.51-63.52a12,12,0,0,1,17,17L145,128Z"></path>
    </symbol>
    <symbol id="icon-plus-circle" viewBox="0 0 256 256">
      <path d="M128,20A108,108,0,1,0,236,128,108.12,108.12,0,0,0,128,20Zm0,192a84,84,0,1,1,84-84A84.09,84.09,0,0,1,128,212Zm52-84a12,12,0,0,1-12,12H140v28a12,12,0,0,1-24,0V140H88a12,12,0,0,1,0-24h28V88a12,12,0,0,1,24,0v28h28A12,12,0,0,1,180,128Z"></path>
    </symbol>
    <symbol id="icon-smiley" viewBox="0 0 256 256">
      <path d="M128,24A104,104,0,1,0,232,128,104.11,104.11,0,0,0,128,24Zm0,192a88,88,0,1,1,88-88A88.1,88.1,0,0,1,128,216ZM80,108a12,12,0,1,1,12,12A12,12,0,0,1,80,108Zm96,0a12,12,0,1,1-12-12A12,12,0,0,1,176,108Zm-1.07,48c-10.29,17.79-27.4,28-46.93,28s-36.63-10.2-46.92-28a8,8,0,1,1,13.84-8c7.47,12.91,19.21,20,33.08,20s25.61-7.1,33.07-20a8,8,0,0,1,13.86,8Z"></path>
    </symbol>
    <symbol id="icon-todo" viewBox="0 0 256 256">
      <path d="M79.51,144.49a12,12,0,1,1,17-17L112,143l47.51-47.52a12,12,0,0,1,17,17l-56,56a12,12,0,0,1-17,0ZM228,48V208a20,20,0,0,1-20,20H48a20,20,0,0,1-20-20V48A20,20,0,0,1,48,28H208A20,20,0,0,1,228,48Zm-24,4H52V204H204Z"></path>
    </symbol>
    <symbol id="icon-timer" viewBox="0 0 256 256">
      <path d="M128,44a96,96,0,1,0,96,96A96.11,96.11,0,0,0,128,44Zm0,168a72,72,0,1,1,72-72A72.08,72.08,0,0,1,128,212ZM164.49,99.51a12,12,0,0,1,0,17l-28,28a12,12,0,0,1-17-17l28-28A12,12,0,0,1,164.49,99.51ZM92,16A12,12,0,0,1,104,4h48a12,12,0,0,1,0,24H104A12,12,0,0,1,92,16Z"></path>
    </symbol>
    <symbol id="icon-check-todo" viewBox="0 0 20 20">
      <path fill-rule="evenodd" d="M16.707 5.293a1 1 0 010 1.414l-8 8a1 1 0 01-1.414 0l-4-4a1 1 0 011.414-1.414L8 12.586l7.293-7.293a1 1 0 011.414 0z" clip-rule="evenodd" />
    </symbol>
    <symbol id="icon-download" viewBox="0 0 256 256">
      <path d="M224,144v64a8,8,0,0,1-8,8H40a8,8,0,0,1-8-8V144a8,8,0,0,1,16,0v56H208V144a8,8,0,0,1,16,0Zm-101.66,5.66a8,8,0,0,0,11.32,0l40-40a8,8,0,0,0-11.32-11.32L136,124.69V32a8,8,0,0,0-16,0v92.69L93.66,98.34a8,8,0,0,0-11.32,11.32Z"></path>
    </symbol>
    <symbol id="icon-export" viewBox="0 0 256 256">
      <path d="M216,112v96a16,16,0,0,1-16,16H56a16,16,0,0,1-16-16V112A16,16,0,0,1,56,96H80a8,8,0,0,1,0,16H56v96H200V112H176a8,8,0,0,1,0-16h24A16,16,0,0,1,216,112ZM93.66,69.66,120,43.31V136a8,8,0,0,0,16,0V43.31l26.34,26.35a8,8,0,0,0,11.32-11.32l-40-40a8,8,0,0,0-11.32,0l-40,40A8,8,0,0,0,93.66,69.66Z"></path>
    </symbol>
    <symbol id="icon-import" viewBox="0 0 256 256">
      <path d="M213.66,82.34l-56-56A8,8,0,0,0,152,24H56A16,16,0,0,0,40,40V216a16,16,0,0,0,16,16H200a16,16,0,0,0,16-16V88A8,8,0,0,0,213.66,82.34ZM160,51.31,188.69,80H160ZM200,216H56V40h88V88a8,8,0,0,0,8,8h48V216Zm-42.34-77.66a8,8,0,0,1-11.32,11.32L136,139.31V184a8,8,0,0,1-16,0V139.31l-10.34,10.35a8,8,0,0,1-11.32-11.32l24-24a8,8,0,0,1,11.32,0Z"></path>
    </symbol>
    <symbol id="icon-command" viewBox="0 0 256 256">
      <path d="M180,144H160V112h20a36,36,0,1,0-36-36V96H112V76a36,36,0,1,0-36,36H96v32H76a36,36,0,1,0,36,36V160h32v20a36,36,0,1,0,36-36ZM160,76a20,20,0,1,1,20,20H160ZM56,76a20,20,0,0,1,40,0V96H76A20,20,0,0,1,56,76ZM96,180a20,20,0,1,1-20-20H96Zm16-68h32v32H112Zm68,88a20,20,0,0,1-20-20V160h20a20,20,0,0,1,0,40Z"></path>
    </symbol>
    <symbol id="icon-github" viewBox="0 0 256 256">
      <path d="M208.31,75.68A59.78,59.78,0,0,0,202.93,28,8,8,0,0,0,196,24a59.75,59.75,0,0,0-48,24H124A59.75,59.75,0,0,0,76,24a8,8,0,0,0-6.93,4,59.78,59.78,0,0,0-5.38,47.68A58.14,58.14,0,0,0,56,104v8a56.06,56.06,0,0,0,48.44,55.47A39.8,39.8,0,0,0,96,192v8H72a24,24,0,0,1-24-24A40,40,0,0,0,8,136a8,8,0,0,0,0,16,24,24,0,0,1,24,24,40,40,0,0,0,40,40H96v16a8,8,0,0,0,16,0V192a24,24,0,0,1,48,0v40a8,8,0,0,0,16,0V192a39.8,39.8,0,0,0-8.44-24.53A56.06,56.06,0,0,0,216,112v-8A58.14,58.14,0,0,0,208.31,75.68ZM200,112a40,40,0,0,1-40,40H112a40,40,0,0,1-40-40v-8a41.74,41.74,0,0,1,6.9-22.48A8,8,0,0,0,80,73.83a43.81,43.81,0,0,1,.79-33.58,43.88,43.88,0,0,1,32.32,20.06A8,8,0,0,0,119.82,64h32.35a8,8,0,0,0,6.74-3.69,43.87,43.87,0,0,1,32.32-20.06A43.81,43.81,0,0,1,192,73.83a8.09,8.09,0,0,0,1,7.65A41.72,41.72,0,0,1,200,104Z"></path>
    </symbol>
    <symbol id="icon-bug" viewBox="0 0 256 256">
      <path d="M144,92a12,12,0,1,1,12,12A12,12,0,0,1,144,92ZM100,80a12,12,0,1,0,12,12A12,12,0,0,0,100,80Zm116,64A87.76,87.76,0,0,1,213,167l22.24,9.72A8,8,0,0,1,232,192a7.89,7.89,0,0,1-3.2-.67L207.38,182a88,88,0,0,1-158.76,0L27.2,191.33A7.89,7.89,0,0,1,24,192a8,8,0,0,1-3.2-15.33L43,167A87.76,87.76,0,0,1,40,144v-8H16a8,8,0,0,1,0-16H40v-8a87.76,87.76,0,0,1,3-23L20.8,79.33a8,8,0,1,1,6.4-14.66L48.62,74a88,88,0,0,1,158.76,0l21.42-9.36a8,8,0,0,1,6.4,14.66L213,89.05a87.76,87.76,0,0,1,3,23v8h24a8,8,0,0,1,0,16H216ZM56,120H200v-8a72,72,0,0,0-144,0Zm64,95.54V136H56v8A72.08,72.08,0,0,0,120,215.54ZM200,144v-8H136v79.54A72.08,72.08,0,0,0,200,144Z"></path>
    </symbol>
    <symbol id="icon-heart" viewBox="0 0 256 256">
      <path d="M240,98a57.63,57.63,0,0,1-17,41L133.7,229.62a8,8,0,0,1-11.4,0L33,139a58,58,0,0,1,82-82.1L128,69.05l13.09-12.19A58,58,0,0,1,240,98Z"></path>
    </symbol>
    <symbol id="icon-clipboard" viewBox="0 0 256 256">
      <path d="M168,152a8,8,0,0,1-8,8H96a8,8,0,0,1,0-16h64A8,8,0,0,1,168,152Zm-8-40H96a8,8,0,0,0,0,16h64a8,8,0,0,0,0-16Zm56-64V216a16,16,0,0,1-16,16H56a16,16,0,0,1-16-16V48A16,16,0,0,1,56,32H92.26a47.92,47.92,0,0,1,71.48,0H200A16,16,0,0,1,216,48ZM96,64h64a32,32,0,0,0-64,0ZM200,48H173.25A47.93,47.93,0,0,1,176,64v8a8,8,0,0,1-8,8H88a8,8,0,0,1-8-8V64a47.93,47.93,0,0,1,2.75-16H56V216H200Z"></path>
    </symbol>
    <symbol id="icon-arrow-down" viewBox="0 0 256 256">
      <path d="M213.66,101.66l-80,80a8,8,0,0,1-11.32,0l-80-80A8,8,0,0,1,53.66,90.34L128,164.69l74.34-74.35a8,8,0,0,1,11.32,11.32Z"></path>
    </symbol>
    <symbol id="icon-star-four" viewBox="0 0 256 256">
      <path d="M240,128a15.79,15.79,0,0,1-10.5,15l-63.44,23.07L143,229.5a16,16,0,0,1-30,0L89.94,166.06,26.5,143a16,16,0,0,1,0-30L89.94,89.94,113,26.5a16,16,0,0,1,30,0l23.07,63.44L229.5,113A15.79,15.79,0,0,1,240,128Z"></path>
    </symbol>
</svg>
