<svg aria-hidden="true" style="position: absolute; width: 0; height: 0; overflow: hidden;" version="1.1" xmlns="http://www.w3.org/2000/svg" xmlns:xlink="http://www.w3.org/1999/xlink">
  <defs>
    <symbol id="icon-plus" viewBox="0 0 256 256">
      <path d="M228,128a12,12,0,0,1-12,12H140v76a12,12,0,0,1-24,0V140H40a12,12,0,0,1,0-24h76V40a12,12,0,0,1,24,0v76h76A12,12,0,0,1,228,128Z"></path>
    </symbol>
    <symbol id="icon-list" viewBox="0 0 256 256">
      <path d="M228,128a12,12,0,0,1-12,12H40a12,12,0,0,1,0-24H216A12,12,0,0,1,228,128ZM40,76H216a12,12,0,0,0,0-24H40a12,12,0,0,0,0,24ZM216,180H40a12,12,0,0,0,0,24H216a12,12,0,0,0,0-24Z"></path>
    </symbol>
    <symbol id="icon-calendar" viewBox="0 0 256 256">
      <path d="M208,28H188V24a12,12,0,0,0-24,0v4H92V24a12,12,0,0,0-24,0v4H48A20,20,0,0,0,28,48V208a20,20,0,0,0,20,20H208a20,20,0,0,0,20-20V48A20,20,0,0,0,208,28ZM68,52a12,12,0,0,0,24,0h72a12,12,0,0,0,24,0h16V76H52V52ZM52,204V100H204V204Z"></path>
    </symbol>
    <symbol id="icon-caret-right" viewBox="0 0 256 256">
      <path d="M184.49,136.49l-80,80a12,12,0,0,1-17-17L159,128,87.51,56.49a12,12,0,1,1,17-17l80,80A12,12,0,0,1,184.49,136.49Z"></path>
    </symbol>
    <symbol id="icon-caret-left" viewBox="0 0 256 256">
      <path d="M168.49,199.51a12,12,0,0,1-17,17l-80-80a12,12,0,0,1,0-17l80-80a12,12,0,0,1,17,17L97,128Z"></path>
    </symbol>
    <symbol id="icon-trash" viewBox="0 0 256 256">
      <path d="M216,48H40a12,12,0,0,0,0,24h4V208a20,20,0,0,0,20,20H192a20,20,0,0,0,20-20V72h4a12,12,0,0,0,0-24ZM188,204H68V72H188ZM76,20A12,12,0,0,1,88,8h80a12,12,0,0,1,0,24H88A12,12,0,0,1,76,20Z"></path>
    </symbol>
    <symbol id="icon-pencil" viewBox="0 0 256 256">
      <path d="M230.14,70.54,185.46,25.85a20,20,0,0,0-28.29,0L33.86,149.17A19.85,19.85,0,0,0,28,163.31V208a20,20,0,0,0,20,20H92.69a19.86,19.86,0,0,0,14.14-5.86L230.14,98.82a20,20,0,0,0,0-28.28ZM91,204H52V165l84-84,39,39ZM192,103,153,64l18.34-18.34,39,39Z"></path>
    </symbol>
  </defs>
</svg>
