<?xml version="1.0" encoding="utf-8"?>
<svg version="1.1" id="a" xmlns="http://www.w3.org/2000/svg" xmlns:xlink="http://www.w3.org/1999/xlink" x="0px" y="0px"
	 viewBox="0 0 256 256" style="enable-background:new 0 0 256 256;" xml:space="preserve">
<style type="text/css">
	.st0{fill:#694CF1;}
	.st1{fill:#FFFFFF;}
</style>
<rect x="0" class="st0" width="256" height="256"/>
<path class="st1" d="M198.6,40h-14.2v7.6c0,3.8-3.1,6.9-6.9,6.9s-6.9-3.1-6.9-6.9V40h-19.2v7.6c0,3.8-3.1,6.9-6.9,6.9l0,0
	c-3.8,0-6.9-3.1-6.9-6.9V40h-19.2v7.6c0,3.8-3.1,6.9-6.9,6.9l0,0c-3.8,0-6.9-3.1-6.9-6.9V40H85.4v7.6c0,3.8-3.1,6.9-6.9,6.9
	s-6.9-3.1-6.9-6.9V40H57.4C47.8,40,40,47.8,40,57.4v141.2c0,9.6,7.8,17.4,17.4,17.4h141.2c9.6,0,17.4-7.8,17.4-17.4V57.4
	C216,47.8,208.2,40,198.6,40z"/>
<path class="st0" d="M178,94.7L178,94.7c-3.2-3.2-8.5-3.2-11.7,0l-49,49L89.6,116c-3.2-3.2-8.5-3.2-11.7,0c-3.2,3.2-3.2,8.5,0,11.7
	l32.7,32.7c0.2,0.3,0.5,0.7,0.8,1l0,0c3.2,3.2,8.5,3.2,11.7,0l0.1-0.1l0,0l0,0l54.8-54.8C181.3,103.2,181.3,97.9,178,94.7L178,94.7z
	"/>
</svg>
